<svg width="205" height="118" viewBox="0 0 205 118" fill="none" xmlns="http://www.w3.org/2000/svg">
<g clip-path="url(#clip0_84_11)">
<path d="M179.777 98.2177C196.652 99.8662 194.775 115.843 179.777 116.265C164.778 116.687 146.112 116.265 146.112 116.265V86.0706C151.113 78.3312 156.923 76.4571 164.159 78.7824C172.238 81.3784 173.629 86.9653 173.877 98.2177C173.877 98.2177 177.484 97.9935 179.777 98.2177Z" fill="#DAE1F5" stroke="#DAE1F5" stroke-width="0.670981"/>
<path d="M125.635 16.6589C132.576 19.0883 88.5 39.2177 88.5 39.2177C88.5 39.2177 87.0375 31.724 89.5412 29.153C91.972 26.6565 98.2177 27.0706 98.2177 27.0706C98.2177 27.0706 100.345 22.2696 103.076 20.8236C106.191 19.1748 112.1 20.8236 112.1 20.8236C112.1 20.8236 118.694 14.2295 125.635 16.6589Z" fill="#F0F2FB" stroke="#F0F2FB" stroke-width="0.670981"/>
<path d="M173.529 1.04121C165.176 1.75787 159.19 5.50791 155.829 13.1883C151.339 23.4492 165.894 41.3 165.894 41.3H197.129C197.129 41.3 203.376 37.8294 204.071 29.8471C204.765 21.8647 194.006 19.7824 194.006 19.7824C196.033 19.2025 187.312 -0.141325 173.529 1.04121Z" fill="#DAE1F5" stroke="#DAE1F5" stroke-width="0.670981"/>
<path d="M128.412 98.5647C115.819 99.9258 117.653 115.918 124.941 116.959C132.229 118 175.612 116.959 175.612 116.959C181.113 115.121 178.735 107.241 174.918 105.159C171.1 103.076 161.729 105.159 161.729 105.159C165.948 102.312 161.729 95.0941 161.729 94.0529C161.729 93.0117 153.981 82.2772 145.418 88.1529C135.906 87.9384 131.891 89.7862 128.412 98.5647Z" fill="#F0F2FB" stroke="#F0F2FB" stroke-width="0.670981"/>
<path d="M40.9529 11.4807C35.4038 6.92924 27.9537 8.34196 22.2117 14.9235L25.3353 36.7882C25.3353 36.7882 48.5882 38.1765 50.6706 37.4823C52.7529 36.7882 56.3839 35.1496 56.9176 31.9294C57.4536 28.6954 55.5778 26.3043 52.7529 24.6412C50.0645 23.0584 44.7706 24.3219 44.7706 24.3219C43.2797 19.3071 44.998 14.7985 40.9529 11.4807Z" fill="#DAE1F5" stroke="#DAE1F5" stroke-width="0.670981"/>
<path d="M8.32957 37.4823C18.2863 39.0366 48.2413 38.1764 48.2413 38.1764C48.2839 33.8367 49.3082 30.8009 43.7296 29.847H35.0531C35.547 23.9899 35.1587 22.1163 33.6649 20.4764C33.6649 20.4764 27.552 11.6899 18.3941 15.2706C9.23622 18.8512 16.5417 20.8788 7.63531 23.2529C-1.27115 25.627 -1.62708 35.928 8.32957 37.4823Z" fill="#F0F2FB" stroke="#F0F2FB" stroke-width="0.670981"/>
<path d="M187.759 41.3H142.988L149.582 16.6588C149.111 14.3023 161.035 8.67649 169.018 15.6177C177 22.5588 177 30.8883 177 30.8883C177 30.8883 180.471 30.8883 183.594 33.6647C186.718 36.4412 187.759 41.3 187.759 41.3Z" fill="#F0F2FB" stroke="#F0F2FB" stroke-width="0.670981"/>
<path d="M152.359 1.38824L57.2649 81.2118H17.3531L152.359 1.38824L134.659 81.2118H80.5177L152.359 1.38824Z" fill="#4D8BFF"/>
<path d="M152.359 1.38824L57.2649 81.2118H17.3531L152.359 1.38824ZM152.359 1.38824L80.5177 81.2118H134.659L152.359 1.38824Z" stroke="#4D8BFF" stroke-width="0.694118"/>
<path d="M147.153 6.59412L79.8236 82.2529V100.647L57.959 80.8647L147.153 6.59412Z" fill="#2B6DEA" stroke="#2B6DEA" stroke-width="0.694118"/>
<path d="M80.5177 81.9059V100.694L100.647 81.9059H80.5177Z" fill="#084FD5" stroke="#084FD5" stroke-width="0.670981"/>
</g>
<defs>
<clipPath id="clip0_84_11">
<rect width="204.765" height="118" fill="white"/>
</clipPath>
</defs>
</svg>
